<svg xmlns="http://www.w3.org/2000/svg" width="18" height="18" viewBox="0 0 18 18">
  <path fill="#4285F4" d="M17.64 9.205c0-.638-.057-1.252-.164-1.841H9v3.482h4.844a4.14 4.14 0 0 1-1.796 2.716v2.258h2.908c1.702-1.567 2.684-3.874 2.684-6.615Z"/>
  <path fill="#34A853" d="M9 18c2.43 0 4.467-.806 5.956-2.18l-2.908-2.258c-.806.54-1.837.859-3.048.859-2.333 0-4.307-1.576-5.015-3.698H.956v2.333C2.437 15.984 5.482 18 9 18Z"/>
  <path fill="#FBBC05" d="M3.985 10.724A5.42 5.42 0 0 1 3.703 9c0-.607.103-1.184.282-1.724V4.944H.956A9 9 0 0 0 0 9c0 1.47.347 2.843.956 4.056l3.029-2.332Z"/>
  <path fill="#EA4335" d="M9 3.58c1.321 0 2.508.454 3.442 1.345l2.581-2.581C13.464.892 11.426 0 9 0 5.482 0 2.437 2.016.956 4.944l3.029 2.332C4.693 5.156 6.667 3.58 9 3.58Z"/>
</svg>